<mxfile host="app.diagrams.net" modified="2023-03-30T20:45:48.863Z" agent="Mozilla/5.0 (Windows NT 10.0; Win64; x64) AppleWebKit/537.36 (KHTML, like Gecko) Chrome/111.0.0.0 Safari/537.36" etag="y_mrjaRBWH-ni_3qXS_N" version="21.1.2" type="google">
  <diagram name="Page-1" id="C0XpjVZ6Y4ruLSGo8q2B">
    <mxGraphModel grid="0" page="1" gridSize="10" guides="1" tooltips="1" connect="1" arrows="1" fold="1" pageScale="1" pageWidth="1169" pageHeight="827" math="0" shadow="0">
      <root>
        <mxCell id="0" />
        <mxCell id="1" parent="0" />
        <mxCell id="6wFRDRMkKDVXxiTzZs4y-2" value="&lt;b&gt;AGENT&lt;/b&gt;" style="rounded=0;whiteSpace=wrap;html=1;" vertex="1" parent="1">
          <mxGeometry x="106.5" y="163" width="67" height="34" as="geometry" />
        </mxCell>
        <mxCell id="6wFRDRMkKDVXxiTzZs4y-3" value="PASSOWORD" style="ellipse;whiteSpace=wrap;html=1;" vertex="1" parent="1">
          <mxGeometry x="22.5" y="132" width="84" height="31" as="geometry" />
        </mxCell>
        <mxCell id="6wFRDRMkKDVXxiTzZs4y-4" value="NO OF SOLD" style="ellipse;whiteSpace=wrap;html=1;" vertex="1" parent="1">
          <mxGeometry x="47" y="98" width="90" height="31" as="geometry" />
        </mxCell>
        <mxCell id="6wFRDRMkKDVXxiTzZs4y-5" value="NO OF RENT" style="ellipse;whiteSpace=wrap;html=1;" vertex="1" parent="1">
          <mxGeometry x="81" y="58" width="89" height="29" as="geometry" />
        </mxCell>
        <mxCell id="6wFRDRMkKDVXxiTzZs4y-6" value="TOT AMT REC" style="ellipse;whiteSpace=wrap;html=1;" vertex="1" parent="1">
          <mxGeometry x="198" y="95" width="97" height="32" as="geometry" />
        </mxCell>
        <mxCell id="6wFRDRMkKDVXxiTzZs4y-7" value="ADMIN" style="ellipse;whiteSpace=wrap;html=1;" vertex="1" parent="1">
          <mxGeometry x="221" y="134.5" width="99" height="26" as="geometry" />
        </mxCell>
        <mxCell id="6wFRDRMkKDVXxiTzZs4y-8" style="edgeStyle=orthogonalEdgeStyle;rounded=0;orthogonalLoop=1;jettySize=auto;html=1;exitX=0.5;exitY=1;exitDx=0;exitDy=0;" edge="1" parent="1" source="6wFRDRMkKDVXxiTzZs4y-7" target="6wFRDRMkKDVXxiTzZs4y-7">
          <mxGeometry relative="1" as="geometry" />
        </mxCell>
        <mxCell id="6wFRDRMkKDVXxiTzZs4y-9" value="NAME" style="ellipse;whiteSpace=wrap;html=1;" vertex="1" parent="1">
          <mxGeometry x="3" y="172" width="89" height="33" as="geometry" />
        </mxCell>
        <mxCell id="6wFRDRMkKDVXxiTzZs4y-10" value="CONTACT" style="ellipse;whiteSpace=wrap;html=1;" vertex="1" parent="1">
          <mxGeometry x="178" y="58" width="97" height="29" as="geometry" />
        </mxCell>
        <mxCell id="6wFRDRMkKDVXxiTzZs4y-11" value="" style="endArrow=classic;html=1;rounded=0;entryX=1;entryY=0.5;entryDx=0;entryDy=0;" edge="1" parent="1" target="6wFRDRMkKDVXxiTzZs4y-2">
          <mxGeometry width="50" height="50" relative="1" as="geometry">
            <mxPoint x="402" y="183" as="sourcePoint" />
            <mxPoint x="510" y="236" as="targetPoint" />
          </mxGeometry>
        </mxCell>
        <mxCell id="6wFRDRMkKDVXxiTzZs4y-12" value="&lt;b&gt;MANAGES&lt;/b&gt;" style="rhombus;whiteSpace=wrap;html=1;" vertex="1" parent="1">
          <mxGeometry x="400" y="156" width="111" height="54" as="geometry" />
        </mxCell>
        <mxCell id="6wFRDRMkKDVXxiTzZs4y-13" value="" style="endArrow=none;html=1;rounded=0;entryX=1;entryY=0.5;entryDx=0;entryDy=0;" edge="1" parent="1" target="6wFRDRMkKDVXxiTzZs4y-12">
          <mxGeometry width="50" height="50" relative="1" as="geometry">
            <mxPoint x="682" y="181" as="sourcePoint" />
            <mxPoint x="510" y="236" as="targetPoint" />
          </mxGeometry>
        </mxCell>
        <mxCell id="6wFRDRMkKDVXxiTzZs4y-14" value="&lt;b&gt;PROPERTY&lt;/b&gt;" style="rounded=0;whiteSpace=wrap;html=1;" vertex="1" parent="1">
          <mxGeometry x="662" y="163" width="90" height="35" as="geometry" />
        </mxCell>
        <mxCell id="6wFRDRMkKDVXxiTzZs4y-16" value="" style="endArrow=none;html=1;rounded=0;entryX=1;entryY=0.25;entryDx=0;entryDy=0;exitX=0.255;exitY=0.968;exitDx=0;exitDy=0;exitPerimeter=0;" edge="1" parent="1" source="6wFRDRMkKDVXxiTzZs4y-7" target="6wFRDRMkKDVXxiTzZs4y-2">
          <mxGeometry width="50" height="50" relative="1" as="geometry">
            <mxPoint x="460" y="286" as="sourcePoint" />
            <mxPoint x="510" y="236" as="targetPoint" />
          </mxGeometry>
        </mxCell>
        <mxCell id="6wFRDRMkKDVXxiTzZs4y-17" value="" style="endArrow=none;html=1;rounded=0;exitX=0.75;exitY=0;exitDx=0;exitDy=0;entryX=0.293;entryY=1.021;entryDx=0;entryDy=0;entryPerimeter=0;" edge="1" parent="1" source="6wFRDRMkKDVXxiTzZs4y-2" target="6wFRDRMkKDVXxiTzZs4y-6">
          <mxGeometry width="50" height="50" relative="1" as="geometry">
            <mxPoint x="460" y="286" as="sourcePoint" />
            <mxPoint x="510" y="236" as="targetPoint" />
          </mxGeometry>
        </mxCell>
        <mxCell id="6wFRDRMkKDVXxiTzZs4y-18" value="" style="endArrow=none;html=1;rounded=0;exitX=0.5;exitY=0;exitDx=0;exitDy=0;" edge="1" parent="1" source="6wFRDRMkKDVXxiTzZs4y-2" target="6wFRDRMkKDVXxiTzZs4y-10">
          <mxGeometry width="50" height="50" relative="1" as="geometry">
            <mxPoint x="460" y="286" as="sourcePoint" />
            <mxPoint x="510" y="236" as="targetPoint" />
          </mxGeometry>
        </mxCell>
        <mxCell id="6wFRDRMkKDVXxiTzZs4y-19" value="" style="endArrow=none;html=1;rounded=0;exitX=0.357;exitY=0.014;exitDx=0;exitDy=0;exitPerimeter=0;entryX=1;entryY=1;entryDx=0;entryDy=0;" edge="1" parent="1" source="6wFRDRMkKDVXxiTzZs4y-2" target="6wFRDRMkKDVXxiTzZs4y-5">
          <mxGeometry width="50" height="50" relative="1" as="geometry">
            <mxPoint x="460" y="286" as="sourcePoint" />
            <mxPoint x="510" y="236" as="targetPoint" />
          </mxGeometry>
        </mxCell>
        <mxCell id="6wFRDRMkKDVXxiTzZs4y-20" value="" style="endArrow=none;html=1;rounded=0;exitX=0.25;exitY=0;exitDx=0;exitDy=0;entryX=1;entryY=1;entryDx=0;entryDy=0;" edge="1" parent="1" source="6wFRDRMkKDVXxiTzZs4y-2" target="6wFRDRMkKDVXxiTzZs4y-4">
          <mxGeometry width="50" height="50" relative="1" as="geometry">
            <mxPoint x="460" y="286" as="sourcePoint" />
            <mxPoint x="510" y="236" as="targetPoint" />
          </mxGeometry>
        </mxCell>
        <mxCell id="6wFRDRMkKDVXxiTzZs4y-21" value="" style="endArrow=none;html=1;rounded=0;exitX=0;exitY=0;exitDx=0;exitDy=0;entryX=1;entryY=1;entryDx=0;entryDy=0;" edge="1" parent="1" source="6wFRDRMkKDVXxiTzZs4y-2" target="6wFRDRMkKDVXxiTzZs4y-3">
          <mxGeometry width="50" height="50" relative="1" as="geometry">
            <mxPoint x="460" y="286" as="sourcePoint" />
            <mxPoint x="510" y="236" as="targetPoint" />
          </mxGeometry>
        </mxCell>
        <mxCell id="6wFRDRMkKDVXxiTzZs4y-22" value="" style="endArrow=none;html=1;rounded=0;exitX=1;exitY=0.5;exitDx=0;exitDy=0;entryX=0;entryY=0.5;entryDx=0;entryDy=0;" edge="1" parent="1" source="6wFRDRMkKDVXxiTzZs4y-9" target="6wFRDRMkKDVXxiTzZs4y-2">
          <mxGeometry width="50" height="50" relative="1" as="geometry">
            <mxPoint x="460" y="286" as="sourcePoint" />
            <mxPoint x="507" y="233" as="targetPoint" />
          </mxGeometry>
        </mxCell>
        <mxCell id="6wFRDRMkKDVXxiTzZs4y-23" value="AGENT_ID" style="ellipse;whiteSpace=wrap;html=1;" vertex="1" parent="1">
          <mxGeometry x="5" y="220" width="96" height="26" as="geometry" />
        </mxCell>
        <mxCell id="6wFRDRMkKDVXxiTzZs4y-24" value="" style="endArrow=none;html=1;rounded=0;entryX=0;entryY=1;entryDx=0;entryDy=0;exitX=0.762;exitY=0.112;exitDx=0;exitDy=0;exitPerimeter=0;" edge="1" parent="1" source="6wFRDRMkKDVXxiTzZs4y-23" target="6wFRDRMkKDVXxiTzZs4y-2">
          <mxGeometry width="50" height="50" relative="1" as="geometry">
            <mxPoint x="460" y="286" as="sourcePoint" />
            <mxPoint x="510" y="236" as="targetPoint" />
          </mxGeometry>
        </mxCell>
        <mxCell id="6wFRDRMkKDVXxiTzZs4y-25" value="Agent_id" style="ellipse;whiteSpace=wrap;html=1;" vertex="1" parent="1">
          <mxGeometry x="356" y="76" width="86" height="36" as="geometry" />
        </mxCell>
        <mxCell id="6wFRDRMkKDVXxiTzZs4y-26" value="pid" style="ellipse;whiteSpace=wrap;html=1;" vertex="1" parent="1">
          <mxGeometry x="465" y="76" width="90" height="34" as="geometry" />
        </mxCell>
        <mxCell id="6wFRDRMkKDVXxiTzZs4y-27" value="" style="endArrow=none;html=1;rounded=0;exitX=0;exitY=0;exitDx=0;exitDy=0;" edge="1" parent="1" source="6wFRDRMkKDVXxiTzZs4y-12" target="6wFRDRMkKDVXxiTzZs4y-25">
          <mxGeometry width="50" height="50" relative="1" as="geometry">
            <mxPoint x="460" y="286" as="sourcePoint" />
            <mxPoint x="510" y="236" as="targetPoint" />
          </mxGeometry>
        </mxCell>
        <mxCell id="6wFRDRMkKDVXxiTzZs4y-28" value="" style="endArrow=none;html=1;rounded=0;entryX=0.422;entryY=1;entryDx=0;entryDy=0;entryPerimeter=0;exitX=0.66;exitY=0.11;exitDx=0;exitDy=0;exitPerimeter=0;" edge="1" parent="1" source="6wFRDRMkKDVXxiTzZs4y-12" target="6wFRDRMkKDVXxiTzZs4y-26">
          <mxGeometry width="50" height="50" relative="1" as="geometry">
            <mxPoint x="460" y="286" as="sourcePoint" />
            <mxPoint x="510" y="236" as="targetPoint" />
          </mxGeometry>
        </mxCell>
        <mxCell id="6wFRDRMkKDVXxiTzZs4y-29" value="" style="endArrow=none;html=1;rounded=0;exitX=0.88;exitY=0.604;exitDx=0;exitDy=0;exitPerimeter=0;" edge="1" parent="1" source="6wFRDRMkKDVXxiTzZs4y-12">
          <mxGeometry width="50" height="50" relative="1" as="geometry">
            <mxPoint x="507" y="192.5" as="sourcePoint" />
            <mxPoint x="658" y="187" as="targetPoint" />
          </mxGeometry>
        </mxCell>
        <mxCell id="6wFRDRMkKDVXxiTzZs4y-30" value="ADDRESS" style="ellipse;whiteSpace=wrap;html=1;" vertex="1" parent="1">
          <mxGeometry x="615" y="117" width="81" height="26" as="geometry" />
        </mxCell>
        <mxCell id="6wFRDRMkKDVXxiTzZs4y-31" value="AREA" style="ellipse;whiteSpace=wrap;html=1;" vertex="1" parent="1">
          <mxGeometry x="574" y="82.5" width="70" height="23" as="geometry" />
        </mxCell>
        <mxCell id="6wFRDRMkKDVXxiTzZs4y-32" value="CITY" style="ellipse;whiteSpace=wrap;html=1;" vertex="1" parent="1">
          <mxGeometry x="653" y="80.5" width="66" height="23.5" as="geometry" />
        </mxCell>
        <mxCell id="6wFRDRMkKDVXxiTzZs4y-33" value="" style="endArrow=none;html=1;rounded=0;exitX=0;exitY=0;exitDx=0;exitDy=0;" edge="1" parent="1" source="6wFRDRMkKDVXxiTzZs4y-30" target="6wFRDRMkKDVXxiTzZs4y-31">
          <mxGeometry width="50" height="50" relative="1" as="geometry">
            <mxPoint x="460" y="286" as="sourcePoint" />
            <mxPoint x="510" y="236" as="targetPoint" />
          </mxGeometry>
        </mxCell>
        <mxCell id="6wFRDRMkKDVXxiTzZs4y-34" value="" style="endArrow=none;html=1;rounded=0;" edge="1" parent="1" source="6wFRDRMkKDVXxiTzZs4y-30" target="6wFRDRMkKDVXxiTzZs4y-32">
          <mxGeometry width="50" height="50" relative="1" as="geometry">
            <mxPoint x="460" y="286" as="sourcePoint" />
            <mxPoint x="510" y="236" as="targetPoint" />
          </mxGeometry>
        </mxCell>
        <mxCell id="6wFRDRMkKDVXxiTzZs4y-35" value="" style="endArrow=none;html=1;rounded=0;entryX=0;entryY=1;entryDx=0;entryDy=0;exitX=0.072;exitY=0.035;exitDx=0;exitDy=0;exitPerimeter=0;" edge="1" parent="1" source="6wFRDRMkKDVXxiTzZs4y-14" target="6wFRDRMkKDVXxiTzZs4y-30">
          <mxGeometry width="50" height="50" relative="1" as="geometry">
            <mxPoint x="653" y="157" as="sourcePoint" />
            <mxPoint x="510" y="236" as="targetPoint" />
          </mxGeometry>
        </mxCell>
        <mxCell id="6wFRDRMkKDVXxiTzZs4y-36" value="PINCODE" style="ellipse;whiteSpace=wrap;html=1;" vertex="1" parent="1">
          <mxGeometry x="608" y="46" width="83" height="25" as="geometry" />
        </mxCell>
        <mxCell id="6wFRDRMkKDVXxiTzZs4y-37" value="" style="endArrow=none;html=1;rounded=0;entryX=0.5;entryY=1;entryDx=0;entryDy=0;exitX=0.395;exitY=0.059;exitDx=0;exitDy=0;exitPerimeter=0;" edge="1" parent="1" source="6wFRDRMkKDVXxiTzZs4y-30" target="6wFRDRMkKDVXxiTzZs4y-36">
          <mxGeometry width="50" height="50" relative="1" as="geometry">
            <mxPoint x="649" y="109" as="sourcePoint" />
            <mxPoint x="510" y="236" as="targetPoint" />
          </mxGeometry>
        </mxCell>
        <mxCell id="6wFRDRMkKDVXxiTzZs4y-38" value="PID" style="ellipse;whiteSpace=wrap;html=1;" vertex="1" parent="1">
          <mxGeometry x="696" y="102" width="44" height="27" as="geometry" />
        </mxCell>
        <mxCell id="6wFRDRMkKDVXxiTzZs4y-39" value="TAG" style="ellipse;whiteSpace=wrap;html=1;" vertex="1" parent="1">
          <mxGeometry x="748" y="71" width="83" height="24" as="geometry" />
        </mxCell>
        <mxCell id="6wFRDRMkKDVXxiTzZs4y-40" value="LIST_DATE" style="ellipse;whiteSpace=wrap;html=1;" vertex="1" parent="1">
          <mxGeometry x="805" y="93" width="101" height="24" as="geometry" />
        </mxCell>
        <mxCell id="6wFRDRMkKDVXxiTzZs4y-42" value="PRICE" style="ellipse;whiteSpace=wrap;html=1;" vertex="1" parent="1">
          <mxGeometry x="841" y="117" width="127" height="20" as="geometry" />
        </mxCell>
        <mxCell id="6wFRDRMkKDVXxiTzZs4y-44" value="STATUS" style="ellipse;whiteSpace=wrap;html=1;" vertex="1" parent="1">
          <mxGeometry x="870" y="138" width="128" height="19" as="geometry" />
        </mxCell>
        <mxCell id="6wFRDRMkKDVXxiTzZs4y-45" value="OWNER_NAME" style="ellipse;whiteSpace=wrap;html=1;" vertex="1" parent="1">
          <mxGeometry x="899" y="160.5" width="132" height="19" as="geometry" />
        </mxCell>
        <mxCell id="6wFRDRMkKDVXxiTzZs4y-46" value="OWNER_MOBILE" style="ellipse;whiteSpace=wrap;html=1;" vertex="1" parent="1">
          <mxGeometry x="883" y="186" width="125" height="20" as="geometry" />
        </mxCell>
        <mxCell id="6wFRDRMkKDVXxiTzZs4y-47" value="TYPE" style="ellipse;whiteSpace=wrap;html=1;" vertex="1" parent="1">
          <mxGeometry x="849" y="210" width="99" height="23" as="geometry" />
        </mxCell>
        <mxCell id="6wFRDRMkKDVXxiTzZs4y-48" value="YOC" style="ellipse;whiteSpace=wrap;html=1;" vertex="1" parent="1">
          <mxGeometry x="845" y="237" width="92" height="22" as="geometry" />
        </mxCell>
        <mxCell id="6wFRDRMkKDVXxiTzZs4y-49" value="FEATURES" style="ellipse;whiteSpace=wrap;html=1;" vertex="1" parent="1">
          <mxGeometry x="559.5" y="210" width="99" height="23" as="geometry" />
        </mxCell>
        <mxCell id="6wFRDRMkKDVXxiTzZs4y-50" value="NO OF BEDROOMS" style="ellipse;whiteSpace=wrap;html=1;" vertex="1" parent="1">
          <mxGeometry x="486" y="241" width="115" height="24" as="geometry" />
        </mxCell>
        <mxCell id="6wFRDRMkKDVXxiTzZs4y-51" value="NO OF BATHROOMS" style="ellipse;whiteSpace=wrap;html=1;" vertex="1" parent="1">
          <mxGeometry x="608" y="242" width="122" height="23" as="geometry" />
        </mxCell>
        <mxCell id="6wFRDRMkKDVXxiTzZs4y-52" value="" style="endArrow=none;html=1;rounded=0;entryX=0.314;entryY=1.025;entryDx=0;entryDy=0;entryPerimeter=0;exitX=0.653;exitY=0.04;exitDx=0;exitDy=0;exitPerimeter=0;" edge="1" parent="1" source="6wFRDRMkKDVXxiTzZs4y-50" target="6wFRDRMkKDVXxiTzZs4y-49">
          <mxGeometry width="50" height="50" relative="1" as="geometry">
            <mxPoint x="460" y="286" as="sourcePoint" />
            <mxPoint x="510" y="236" as="targetPoint" />
          </mxGeometry>
        </mxCell>
        <mxCell id="6wFRDRMkKDVXxiTzZs4y-53" value="" style="endArrow=none;html=1;rounded=0;exitX=0.5;exitY=0;exitDx=0;exitDy=0;" edge="1" parent="1" source="6wFRDRMkKDVXxiTzZs4y-51" target="6wFRDRMkKDVXxiTzZs4y-49">
          <mxGeometry width="50" height="50" relative="1" as="geometry">
            <mxPoint x="648" y="237" as="sourcePoint" />
            <mxPoint x="510" y="236" as="targetPoint" />
          </mxGeometry>
        </mxCell>
        <mxCell id="6wFRDRMkKDVXxiTzZs4y-54" value="" style="endArrow=none;html=1;rounded=0;entryX=0;entryY=1;entryDx=0;entryDy=0;" edge="1" parent="1" target="6wFRDRMkKDVXxiTzZs4y-14">
          <mxGeometry width="50" height="50" relative="1" as="geometry">
            <mxPoint x="621" y="209" as="sourcePoint" />
            <mxPoint x="510" y="236" as="targetPoint" />
          </mxGeometry>
        </mxCell>
        <mxCell id="6wFRDRMkKDVXxiTzZs4y-55" value="" style="endArrow=none;html=1;rounded=0;exitX=0.25;exitY=0;exitDx=0;exitDy=0;" edge="1" parent="1" source="6wFRDRMkKDVXxiTzZs4y-14" target="6wFRDRMkKDVXxiTzZs4y-38">
          <mxGeometry width="50" height="50" relative="1" as="geometry">
            <mxPoint x="460" y="286" as="sourcePoint" />
            <mxPoint x="510" y="236" as="targetPoint" />
          </mxGeometry>
        </mxCell>
        <mxCell id="6wFRDRMkKDVXxiTzZs4y-56" value="" style="endArrow=none;html=1;rounded=0;entryX=0;entryY=1;entryDx=0;entryDy=0;" edge="1" parent="1" source="6wFRDRMkKDVXxiTzZs4y-14" target="6wFRDRMkKDVXxiTzZs4y-39">
          <mxGeometry width="50" height="50" relative="1" as="geometry">
            <mxPoint x="460" y="286" as="sourcePoint" />
            <mxPoint x="510" y="236" as="targetPoint" />
          </mxGeometry>
        </mxCell>
        <mxCell id="6wFRDRMkKDVXxiTzZs4y-57" value="" style="endArrow=none;html=1;rounded=0;entryX=0;entryY=0.5;entryDx=0;entryDy=0;exitX=0.75;exitY=0;exitDx=0;exitDy=0;" edge="1" parent="1" source="6wFRDRMkKDVXxiTzZs4y-14" target="6wFRDRMkKDVXxiTzZs4y-40">
          <mxGeometry width="50" height="50" relative="1" as="geometry">
            <mxPoint x="460" y="286" as="sourcePoint" />
            <mxPoint x="510" y="236" as="targetPoint" />
          </mxGeometry>
        </mxCell>
        <mxCell id="6wFRDRMkKDVXxiTzZs4y-58" value="" style="endArrow=none;html=1;rounded=0;entryX=0;entryY=0.5;entryDx=0;entryDy=0;exitX=1;exitY=0;exitDx=0;exitDy=0;" edge="1" parent="1" source="6wFRDRMkKDVXxiTzZs4y-14" target="6wFRDRMkKDVXxiTzZs4y-42">
          <mxGeometry width="50" height="50" relative="1" as="geometry">
            <mxPoint x="460" y="286" as="sourcePoint" />
            <mxPoint x="510" y="236" as="targetPoint" />
          </mxGeometry>
        </mxCell>
        <mxCell id="6wFRDRMkKDVXxiTzZs4y-59" value="" style="endArrow=none;html=1;rounded=0;entryX=0;entryY=0.5;entryDx=0;entryDy=0;exitX=1;exitY=0.5;exitDx=0;exitDy=0;" edge="1" parent="1" source="6wFRDRMkKDVXxiTzZs4y-14" target="6wFRDRMkKDVXxiTzZs4y-44">
          <mxGeometry width="50" height="50" relative="1" as="geometry">
            <mxPoint x="460" y="286" as="sourcePoint" />
            <mxPoint x="510" y="236" as="targetPoint" />
          </mxGeometry>
        </mxCell>
        <mxCell id="6wFRDRMkKDVXxiTzZs4y-60" value="" style="endArrow=none;html=1;rounded=0;entryX=0;entryY=0.5;entryDx=0;entryDy=0;" edge="1" parent="1" target="6wFRDRMkKDVXxiTzZs4y-45">
          <mxGeometry width="50" height="50" relative="1" as="geometry">
            <mxPoint x="750" y="185" as="sourcePoint" />
            <mxPoint x="510" y="236" as="targetPoint" />
          </mxGeometry>
        </mxCell>
        <mxCell id="6wFRDRMkKDVXxiTzZs4y-61" value="" style="endArrow=none;html=1;rounded=0;entryX=0;entryY=0;entryDx=0;entryDy=0;exitX=1;exitY=0.75;exitDx=0;exitDy=0;" edge="1" parent="1" source="6wFRDRMkKDVXxiTzZs4y-14" target="6wFRDRMkKDVXxiTzZs4y-46">
          <mxGeometry width="50" height="50" relative="1" as="geometry">
            <mxPoint x="462" y="286" as="sourcePoint" />
            <mxPoint x="512" y="236" as="targetPoint" />
          </mxGeometry>
        </mxCell>
        <mxCell id="6wFRDRMkKDVXxiTzZs4y-62" value="" style="endArrow=none;html=1;rounded=0;entryX=0.076;entryY=0.197;entryDx=0;entryDy=0;entryPerimeter=0;exitX=1;exitY=0.75;exitDx=0;exitDy=0;" edge="1" parent="1" source="6wFRDRMkKDVXxiTzZs4y-14" target="6wFRDRMkKDVXxiTzZs4y-47">
          <mxGeometry width="50" height="50" relative="1" as="geometry">
            <mxPoint x="462" y="286" as="sourcePoint" />
            <mxPoint x="512" y="236" as="targetPoint" />
          </mxGeometry>
        </mxCell>
        <mxCell id="6wFRDRMkKDVXxiTzZs4y-63" value="" style="endArrow=none;html=1;rounded=0;exitX=1;exitY=1;exitDx=0;exitDy=0;entryX=0;entryY=0.5;entryDx=0;entryDy=0;" edge="1" parent="1" source="6wFRDRMkKDVXxiTzZs4y-14" target="6wFRDRMkKDVXxiTzZs4y-48">
          <mxGeometry width="50" height="50" relative="1" as="geometry">
            <mxPoint x="462" y="286" as="sourcePoint" />
            <mxPoint x="846" y="239" as="targetPoint" />
          </mxGeometry>
        </mxCell>
        <mxCell id="6wFRDRMkKDVXxiTzZs4y-64" value="&lt;b&gt;SOLD&lt;/b&gt;" style="rhombus;whiteSpace=wrap;html=1;" vertex="1" parent="1">
          <mxGeometry x="646" y="531.5" width="80" height="39" as="geometry" />
        </mxCell>
        <mxCell id="6wFRDRMkKDVXxiTzZs4y-65" value="&lt;b&gt;DEAL&lt;/b&gt;" style="rounded=0;whiteSpace=wrap;html=1;" vertex="1" parent="1">
          <mxGeometry x="389" y="535" width="100" height="32" as="geometry" />
        </mxCell>
        <mxCell id="6wFRDRMkKDVXxiTzZs4y-66" value="&lt;b&gt;OFFICER&lt;/b&gt;" style="rounded=0;whiteSpace=wrap;html=1;" vertex="1" parent="1">
          <mxGeometry x="88" y="458" width="110" height="32" as="geometry" />
        </mxCell>
        <mxCell id="6wFRDRMkKDVXxiTzZs4y-67" value="&lt;b&gt;LOGIN&lt;/b&gt;" style="rhombus;whiteSpace=wrap;html=1;" vertex="1" parent="1">
          <mxGeometry x="100" y="312" width="80" height="47" as="geometry" />
        </mxCell>
        <mxCell id="6wFRDRMkKDVXxiTzZs4y-68" value="" style="endArrow=none;html=1;rounded=0;entryX=0.5;entryY=1;entryDx=0;entryDy=0;exitX=0.5;exitY=0;exitDx=0;exitDy=0;" edge="1" parent="1" source="6wFRDRMkKDVXxiTzZs4y-66" target="6wFRDRMkKDVXxiTzZs4y-67">
          <mxGeometry width="50" height="50" relative="1" as="geometry">
            <mxPoint x="138" y="447" as="sourcePoint" />
            <mxPoint x="429" y="317" as="targetPoint" />
          </mxGeometry>
        </mxCell>
        <mxCell id="6wFRDRMkKDVXxiTzZs4y-69" value="" style="endArrow=none;html=1;rounded=0;entryX=0.5;entryY=1;entryDx=0;entryDy=0;" edge="1" parent="1" target="6wFRDRMkKDVXxiTzZs4y-2">
          <mxGeometry width="50" height="50" relative="1" as="geometry">
            <mxPoint x="140" y="308" as="sourcePoint" />
            <mxPoint x="208" y="249" as="targetPoint" />
          </mxGeometry>
        </mxCell>
        <mxCell id="6wFRDRMkKDVXxiTzZs4y-73" value="" style="endArrow=none;html=1;rounded=0;exitX=0.5;exitY=1;exitDx=0;exitDy=0;" edge="1" parent="1" source="6wFRDRMkKDVXxiTzZs4y-74">
          <mxGeometry width="50" height="50" relative="1" as="geometry">
            <mxPoint x="379" y="367" as="sourcePoint" />
            <mxPoint x="442" y="532" as="targetPoint" />
          </mxGeometry>
        </mxCell>
        <mxCell id="6wFRDRMkKDVXxiTzZs4y-74" value="&lt;b&gt;UPDATE SALES&lt;/b&gt;" style="rhombus;whiteSpace=wrap;html=1;" vertex="1" parent="1">
          <mxGeometry x="329" y="327" width="120" height="43" as="geometry" />
        </mxCell>
        <mxCell id="6wFRDRMkKDVXxiTzZs4y-75" value="" style="endArrow=none;html=1;rounded=0;entryX=1;entryY=0.5;entryDx=0;entryDy=0;" edge="1" parent="1" target="6wFRDRMkKDVXxiTzZs4y-64">
          <mxGeometry width="50" height="50" relative="1" as="geometry">
            <mxPoint x="736" y="551" as="sourcePoint" />
            <mxPoint x="429" y="317" as="targetPoint" />
          </mxGeometry>
        </mxCell>
        <mxCell id="6wFRDRMkKDVXxiTzZs4y-76" value="" style="endArrow=none;html=1;rounded=0;exitX=0.5;exitY=0;exitDx=0;exitDy=0;entryX=1;entryY=1;entryDx=0;entryDy=0;" edge="1" parent="1" source="6wFRDRMkKDVXxiTzZs4y-74" target="6wFRDRMkKDVXxiTzZs4y-2">
          <mxGeometry width="50" height="50" relative="1" as="geometry">
            <mxPoint x="379" y="367" as="sourcePoint" />
            <mxPoint x="736" y="551" as="targetPoint" />
          </mxGeometry>
        </mxCell>
        <mxCell id="6wFRDRMkKDVXxiTzZs4y-77" value="" style="endArrow=classic;html=1;rounded=0;entryX=0.75;entryY=1;entryDx=0;entryDy=0;" edge="1" parent="1" target="6wFRDRMkKDVXxiTzZs4y-14">
          <mxGeometry width="50" height="50" relative="1" as="geometry">
            <mxPoint x="736" y="552" as="sourcePoint" />
            <mxPoint x="661" y="351" as="targetPoint" />
          </mxGeometry>
        </mxCell>
        <mxCell id="6wFRDRMkKDVXxiTzZs4y-79" value="" style="endArrow=classic;html=1;rounded=0;exitX=0;exitY=0.5;exitDx=0;exitDy=0;entryX=1;entryY=0.5;entryDx=0;entryDy=0;" edge="1" parent="1" source="6wFRDRMkKDVXxiTzZs4y-64" target="6wFRDRMkKDVXxiTzZs4y-65">
          <mxGeometry width="50" height="50" relative="1" as="geometry">
            <mxPoint x="379" y="367" as="sourcePoint" />
            <mxPoint x="429" y="317" as="targetPoint" />
          </mxGeometry>
        </mxCell>
        <mxCell id="6wFRDRMkKDVXxiTzZs4y-80" value="PID" style="ellipse;whiteSpace=wrap;html=1;" vertex="1" parent="1">
          <mxGeometry x="608" y="590" width="64" height="31" as="geometry" />
        </mxCell>
        <mxCell id="6wFRDRMkKDVXxiTzZs4y-81" value="DEAL NO" style="ellipse;whiteSpace=wrap;html=1;" vertex="1" parent="1">
          <mxGeometry x="701" y="591" width="65" height="29" as="geometry" />
        </mxCell>
        <mxCell id="6wFRDRMkKDVXxiTzZs4y-82" value="" style="endArrow=none;html=1;rounded=0;entryX=0;entryY=1;entryDx=0;entryDy=0;exitX=0.5;exitY=0;exitDx=0;exitDy=0;" edge="1" parent="1" source="6wFRDRMkKDVXxiTzZs4y-80" target="6wFRDRMkKDVXxiTzZs4y-64">
          <mxGeometry width="50" height="50" relative="1" as="geometry">
            <mxPoint x="379" y="572" as="sourcePoint" />
            <mxPoint x="429" y="522" as="targetPoint" />
          </mxGeometry>
        </mxCell>
        <mxCell id="6wFRDRMkKDVXxiTzZs4y-83" value="" style="endArrow=none;html=1;rounded=0;entryX=1;entryY=1;entryDx=0;entryDy=0;exitX=0.376;exitY=-0.015;exitDx=0;exitDy=0;exitPerimeter=0;" edge="1" parent="1" source="6wFRDRMkKDVXxiTzZs4y-81" target="6wFRDRMkKDVXxiTzZs4y-64">
          <mxGeometry width="50" height="50" relative="1" as="geometry">
            <mxPoint x="379" y="572" as="sourcePoint" />
            <mxPoint x="429" y="522" as="targetPoint" />
          </mxGeometry>
        </mxCell>
        <mxCell id="6wFRDRMkKDVXxiTzZs4y-84" value="PID" style="ellipse;whiteSpace=wrap;html=1;" vertex="1" parent="1">
          <mxGeometry x="329" y="611" width="91" height="31" as="geometry" />
        </mxCell>
        <mxCell id="6wFRDRMkKDVXxiTzZs4y-85" value="DEAL DATE" style="ellipse;whiteSpace=wrap;html=1;" vertex="1" parent="1">
          <mxGeometry x="579" y="686" width="95" height="24.5" as="geometry" />
        </mxCell>
        <mxCell id="6wFRDRMkKDVXxiTzZs4y-86" value="BUYER_CONTACT" style="ellipse;whiteSpace=wrap;html=1;" vertex="1" parent="1">
          <mxGeometry x="467" y="655" width="120" height="25" as="geometry" />
        </mxCell>
        <mxCell id="6wFRDRMkKDVXxiTzZs4y-87" value="BUYER_NAME" style="ellipse;whiteSpace=wrap;html=1;" vertex="1" parent="1">
          <mxGeometry x="358" y="686" width="146.5" height="30" as="geometry" />
        </mxCell>
        <mxCell id="6wFRDRMkKDVXxiTzZs4y-88" value="SELLING PRICE" style="ellipse;whiteSpace=wrap;html=1;" vertex="1" parent="1">
          <mxGeometry x="293" y="646" width="172" height="26" as="geometry" />
        </mxCell>
        <mxCell id="6wFRDRMkKDVXxiTzZs4y-89" value="DEAL NO&amp;nbsp;" style="ellipse;whiteSpace=wrap;html=1;" vertex="1" parent="1">
          <mxGeometry x="247" y="584" width="99" height="35" as="geometry" />
        </mxCell>
        <mxCell id="6wFRDRMkKDVXxiTzZs4y-90" value="" style="endArrow=none;html=1;rounded=0;entryX=0;entryY=0.75;entryDx=0;entryDy=0;" edge="1" parent="1" source="6wFRDRMkKDVXxiTzZs4y-89" target="6wFRDRMkKDVXxiTzZs4y-65">
          <mxGeometry width="50" height="50" relative="1" as="geometry">
            <mxPoint x="379" y="572" as="sourcePoint" />
            <mxPoint x="429" y="522" as="targetPoint" />
          </mxGeometry>
        </mxCell>
        <mxCell id="6wFRDRMkKDVXxiTzZs4y-91" value="" style="endArrow=none;html=1;rounded=0;entryX=0.25;entryY=1;entryDx=0;entryDy=0;" edge="1" parent="1" target="6wFRDRMkKDVXxiTzZs4y-65">
          <mxGeometry width="50" height="50" relative="1" as="geometry">
            <mxPoint x="429" y="647.8888753255209" as="sourcePoint" />
            <mxPoint x="429" y="522" as="targetPoint" />
          </mxGeometry>
        </mxCell>
        <mxCell id="6wFRDRMkKDVXxiTzZs4y-92" value="" style="endArrow=none;html=1;rounded=0;entryX=0.673;entryY=0;entryDx=0;entryDy=0;entryPerimeter=0;" edge="1" parent="1" source="6wFRDRMkKDVXxiTzZs4y-65" target="6wFRDRMkKDVXxiTzZs4y-87">
          <mxGeometry width="50" height="50" relative="1" as="geometry">
            <mxPoint x="379" y="572" as="sourcePoint" />
            <mxPoint x="429" y="522" as="targetPoint" />
          </mxGeometry>
        </mxCell>
        <mxCell id="6wFRDRMkKDVXxiTzZs4y-93" value="" style="endArrow=none;html=1;rounded=0;exitX=0.711;exitY=-0.004;exitDx=0;exitDy=0;exitPerimeter=0;entryX=0.75;entryY=1;entryDx=0;entryDy=0;" edge="1" parent="1" source="6wFRDRMkKDVXxiTzZs4y-86" target="6wFRDRMkKDVXxiTzZs4y-65">
          <mxGeometry width="50" height="50" relative="1" as="geometry">
            <mxPoint x="379" y="572" as="sourcePoint" />
            <mxPoint x="429" y="522" as="targetPoint" />
          </mxGeometry>
        </mxCell>
        <mxCell id="6wFRDRMkKDVXxiTzZs4y-94" value="" style="endArrow=none;html=1;rounded=0;entryX=1;entryY=0.75;entryDx=0;entryDy=0;" edge="1" parent="1" target="6wFRDRMkKDVXxiTzZs4y-65">
          <mxGeometry width="50" height="50" relative="1" as="geometry">
            <mxPoint x="620" y="687" as="sourcePoint" />
            <mxPoint x="429" y="522" as="targetPoint" />
          </mxGeometry>
        </mxCell>
        <mxCell id="6wFRDRMkKDVXxiTzZs4y-95" value="" style="endArrow=none;html=1;rounded=0;entryX=0;entryY=0.75;entryDx=0;entryDy=0;" edge="1" parent="1" target="6wFRDRMkKDVXxiTzZs4y-65">
          <mxGeometry width="50" height="50" relative="1" as="geometry">
            <mxPoint x="370" y="611" as="sourcePoint" />
            <mxPoint x="366" y="611" as="targetPoint" />
            <Array as="points" />
          </mxGeometry>
        </mxCell>
        <mxCell id="6wFRDRMkKDVXxiTzZs4y-96" value="DEAL NO" style="ellipse;whiteSpace=wrap;html=1;" vertex="1" parent="1">
          <mxGeometry x="287" y="375" width="83" height="28" as="geometry" />
        </mxCell>
        <mxCell id="6wFRDRMkKDVXxiTzZs4y-97" value="AGENT_ID" style="ellipse;whiteSpace=wrap;html=1;" vertex="1" parent="1">
          <mxGeometry x="435" y="372" width="83" height="31" as="geometry" />
        </mxCell>
        <mxCell id="6wFRDRMkKDVXxiTzZs4y-98" value="" style="endArrow=none;html=1;rounded=0;exitX=0.5;exitY=0;exitDx=0;exitDy=0;" edge="1" parent="1" source="6wFRDRMkKDVXxiTzZs4y-96">
          <mxGeometry width="50" height="50" relative="1" as="geometry">
            <mxPoint x="374" y="391" as="sourcePoint" />
            <mxPoint x="362" y="359" as="targetPoint" />
          </mxGeometry>
        </mxCell>
        <mxCell id="6wFRDRMkKDVXxiTzZs4y-99" value="" style="endArrow=none;html=1;rounded=0;" edge="1" parent="1" target="6wFRDRMkKDVXxiTzZs4y-97">
          <mxGeometry width="50" height="50" relative="1" as="geometry">
            <mxPoint x="421" y="351" as="sourcePoint" />
            <mxPoint x="424" y="341" as="targetPoint" />
          </mxGeometry>
        </mxCell>
        <mxCell id="6wFRDRMkKDVXxiTzZs4y-101" value="USERNAME&amp;nbsp;" style="ellipse;whiteSpace=wrap;html=1;" vertex="1" parent="1">
          <mxGeometry x="2" y="511" width="104.5" height="37" as="geometry" />
        </mxCell>
        <mxCell id="6wFRDRMkKDVXxiTzZs4y-104" value="PASSWORD" style="ellipse;whiteSpace=wrap;html=1;" vertex="1" parent="1">
          <mxGeometry x="14" y="559.5" width="128.5" height="31.5" as="geometry" />
        </mxCell>
        <mxCell id="6wFRDRMkKDVXxiTzZs4y-105" value="AGENT_ID" style="ellipse;whiteSpace=wrap;html=1;" vertex="1" parent="1">
          <mxGeometry x="81" y="594" width="120" height="35" as="geometry" />
        </mxCell>
        <mxCell id="6wFRDRMkKDVXxiTzZs4y-106" value="ADMIN" style="ellipse;whiteSpace=wrap;html=1;" vertex="1" parent="1">
          <mxGeometry x="160" y="534.25" width="115" height="33.5" as="geometry" />
        </mxCell>
        <mxCell id="6wFRDRMkKDVXxiTzZs4y-107" value="" style="endArrow=none;html=1;rounded=0;exitX=0.5;exitY=0;exitDx=0;exitDy=0;entryX=0;entryY=0.75;entryDx=0;entryDy=0;" edge="1" parent="1" source="6wFRDRMkKDVXxiTzZs4y-101" target="6wFRDRMkKDVXxiTzZs4y-66">
          <mxGeometry width="50" height="50" relative="1" as="geometry">
            <mxPoint x="374" y="425" as="sourcePoint" />
            <mxPoint x="424" y="375" as="targetPoint" />
          </mxGeometry>
        </mxCell>
        <mxCell id="6wFRDRMkKDVXxiTzZs4y-108" value="" style="endArrow=none;html=1;rounded=0;entryX=0.5;entryY=1;entryDx=0;entryDy=0;" edge="1" parent="1" source="6wFRDRMkKDVXxiTzZs4y-104" target="6wFRDRMkKDVXxiTzZs4y-66">
          <mxGeometry width="50" height="50" relative="1" as="geometry">
            <mxPoint x="374" y="425" as="sourcePoint" />
            <mxPoint x="424" y="375" as="targetPoint" />
          </mxGeometry>
        </mxCell>
        <mxCell id="6wFRDRMkKDVXxiTzZs4y-109" value="" style="endArrow=none;html=1;rounded=0;entryX=0.656;entryY=0.976;entryDx=0;entryDy=0;entryPerimeter=0;" edge="1" parent="1" source="6wFRDRMkKDVXxiTzZs4y-105" target="6wFRDRMkKDVXxiTzZs4y-66">
          <mxGeometry width="50" height="50" relative="1" as="geometry">
            <mxPoint x="374" y="425" as="sourcePoint" />
            <mxPoint x="424" y="375" as="targetPoint" />
            <Array as="points">
              <mxPoint x="158" y="514" />
            </Array>
          </mxGeometry>
        </mxCell>
        <mxCell id="6wFRDRMkKDVXxiTzZs4y-110" value="" style="endArrow=none;html=1;rounded=0;exitX=0.4;exitY=0.022;exitDx=0;exitDy=0;exitPerimeter=0;entryX=1;entryY=1;entryDx=0;entryDy=0;" edge="1" parent="1" source="6wFRDRMkKDVXxiTzZs4y-106" target="6wFRDRMkKDVXxiTzZs4y-66">
          <mxGeometry width="50" height="50" relative="1" as="geometry">
            <mxPoint x="374" y="425" as="sourcePoint" />
            <mxPoint x="424" y="375" as="targetPoint" />
          </mxGeometry>
        </mxCell>
        <mxCell id="6wFRDRMkKDVXxiTzZs4y-111" value="USERNAME" style="ellipse;whiteSpace=wrap;html=1;" vertex="1" parent="1">
          <mxGeometry x="36" y="355" width="78.75" height="26" as="geometry" />
        </mxCell>
        <mxCell id="6wFRDRMkKDVXxiTzZs4y-112" value="AGENT_ID" style="ellipse;whiteSpace=wrap;html=1;" vertex="1" parent="1">
          <mxGeometry x="38.38" y="284" width="74" height="32" as="geometry" />
        </mxCell>
        <mxCell id="6wFRDRMkKDVXxiTzZs4y-113" value="" style="endArrow=none;html=1;rounded=0;exitX=1;exitY=0.5;exitDx=0;exitDy=0;entryX=0;entryY=1;entryDx=0;entryDy=0;" edge="1" parent="1" source="6wFRDRMkKDVXxiTzZs4y-111" target="6wFRDRMkKDVXxiTzZs4y-67">
          <mxGeometry width="50" height="50" relative="1" as="geometry">
            <mxPoint x="374" y="378" as="sourcePoint" />
            <mxPoint x="424" y="328" as="targetPoint" />
          </mxGeometry>
        </mxCell>
        <mxCell id="6wFRDRMkKDVXxiTzZs4y-114" value="" style="endArrow=none;html=1;rounded=0;entryX=1;entryY=1;entryDx=0;entryDy=0;exitX=0;exitY=0;exitDx=0;exitDy=0;" edge="1" parent="1" source="6wFRDRMkKDVXxiTzZs4y-67" target="6wFRDRMkKDVXxiTzZs4y-112">
          <mxGeometry width="50" height="50" relative="1" as="geometry">
            <mxPoint x="374" y="378" as="sourcePoint" />
            <mxPoint x="424" y="328" as="targetPoint" />
          </mxGeometry>
        </mxCell>
        <mxCell id="cHg1UCxaQt2pmAYBMXGZ-1" value="" style="endArrow=none;html=1;rounded=0;exitX=0;exitY=1;exitDx=0;exitDy=0;" edge="1" parent="1" source="6wFRDRMkKDVXxiTzZs4y-23">
          <mxGeometry width="50" height="50" relative="1" as="geometry">
            <mxPoint x="424" y="277" as="sourcePoint" />
            <mxPoint x="78" y="240" as="targetPoint" />
          </mxGeometry>
        </mxCell>
        <mxCell id="cHg1UCxaQt2pmAYBMXGZ-3" value="" style="endArrow=none;html=1;rounded=0;entryX=0.636;entryY=0.741;entryDx=0;entryDy=0;entryPerimeter=0;exitX=0;exitY=1;exitDx=0;exitDy=0;" edge="1" parent="1" source="6wFRDRMkKDVXxiTzZs4y-38" target="6wFRDRMkKDVXxiTzZs4y-38">
          <mxGeometry width="50" height="50" relative="1" as="geometry">
            <mxPoint x="424" y="277" as="sourcePoint" />
            <mxPoint x="474" y="227" as="targetPoint" />
          </mxGeometry>
        </mxCell>
        <mxCell id="cHg1UCxaQt2pmAYBMXGZ-4" value="" style="endArrow=none;html=1;rounded=0;" edge="1" parent="1">
          <mxGeometry width="50" height="50" relative="1" as="geometry">
            <mxPoint x="316" y="610" as="sourcePoint" />
            <mxPoint x="272" y="610" as="targetPoint" />
          </mxGeometry>
        </mxCell>
        <mxCell id="cHg1UCxaQt2pmAYBMXGZ-5" value="" style="endArrow=none;html=1;rounded=0;entryX=0.249;entryY=0.806;entryDx=0;entryDy=0;entryPerimeter=0;" edge="1" parent="1" source="6wFRDRMkKDVXxiTzZs4y-101" target="6wFRDRMkKDVXxiTzZs4y-101">
          <mxGeometry width="50" height="50" relative="1" as="geometry">
            <mxPoint x="404" y="573" as="sourcePoint" />
            <mxPoint x="454" y="523" as="targetPoint" />
            <Array as="points">
              <mxPoint x="74" y="540" />
              <mxPoint x="80" y="541" />
            </Array>
          </mxGeometry>
        </mxCell>
        <mxCell id="cHg1UCxaQt2pmAYBMXGZ-6" value="1" style="text;html=1;align=center;verticalAlign=middle;resizable=0;points=[];autosize=1;strokeColor=none;fillColor=none;" vertex="1" parent="1">
          <mxGeometry x="332" y="151" width="25" height="26" as="geometry" />
        </mxCell>
        <mxCell id="cHg1UCxaQt2pmAYBMXGZ-7" value="m" style="text;html=1;align=center;verticalAlign=middle;resizable=0;points=[];autosize=1;strokeColor=none;fillColor=none;" vertex="1" parent="1">
          <mxGeometry x="587" y="156" width="28" height="26" as="geometry" />
        </mxCell>
        <mxCell id="cHg1UCxaQt2pmAYBMXGZ-8" value="1" style="text;html=1;align=center;verticalAlign=middle;resizable=0;points=[];autosize=1;strokeColor=none;fillColor=none;" vertex="1" parent="1">
          <mxGeometry x="744" y="220" width="25" height="26" as="geometry" />
        </mxCell>
        <mxCell id="cHg1UCxaQt2pmAYBMXGZ-9" value="1" style="text;html=1;align=center;verticalAlign=middle;resizable=0;points=[];autosize=1;strokeColor=none;fillColor=none;" vertex="1" parent="1">
          <mxGeometry x="504.5" y="520" width="25" height="26" as="geometry" />
        </mxCell>
        <mxCell id="cHg1UCxaQt2pmAYBMXGZ-10" value="" style="endArrow=none;html=1;rounded=0;exitX=0.395;exitY=0.893;exitDx=0;exitDy=0;exitPerimeter=0;" edge="1" parent="1" source="6wFRDRMkKDVXxiTzZs4y-74">
          <mxGeometry width="50" height="50" relative="1" as="geometry">
            <mxPoint x="404" y="472" as="sourcePoint" />
            <mxPoint x="435" y="538" as="targetPoint" />
          </mxGeometry>
        </mxCell>
        <mxCell id="cHg1UCxaQt2pmAYBMXGZ-12" value="" style="endArrow=classic;html=1;rounded=0;exitX=0.5;exitY=0;exitDx=0;exitDy=0;entryX=1;entryY=1;entryDx=0;entryDy=0;" edge="1" parent="1" source="6wFRDRMkKDVXxiTzZs4y-74" target="6wFRDRMkKDVXxiTzZs4y-2">
          <mxGeometry width="50" height="50" relative="1" as="geometry">
            <mxPoint x="404" y="278" as="sourcePoint" />
            <mxPoint x="454" y="228" as="targetPoint" />
          </mxGeometry>
        </mxCell>
        <mxCell id="cHg1UCxaQt2pmAYBMXGZ-13" value="1" style="text;html=1;align=center;verticalAlign=middle;resizable=0;points=[];autosize=1;strokeColor=none;fillColor=none;" vertex="1" parent="1">
          <mxGeometry x="185" y="215" width="25" height="26" as="geometry" />
        </mxCell>
        <mxCell id="cHg1UCxaQt2pmAYBMXGZ-14" value="M" style="text;html=1;align=center;verticalAlign=middle;resizable=0;points=[];autosize=1;strokeColor=none;fillColor=none;" vertex="1" parent="1">
          <mxGeometry x="392" y="502" width="28" height="26" as="geometry" />
        </mxCell>
      </root>
    </mxGraphModel>
  </diagram>
</mxfile>
